<svg width="40" height="40" viewBox="0 0 40 40" fill="none" xmlns="http://www.w3.org/2000/svg">
<path d="M36.25 31.25C35.9185 31.25 35.6005 31.3817 35.3661 31.6161C35.1317 31.8505 35 32.1685 35 32.5C34.9983 32.9384 34.8812 33.3687 34.6607 33.7476C34.4402 34.1265 34.1239 34.4408 33.7436 34.6588C33.3632 34.8769 32.9322 34.9911 32.4938 34.99C32.0554 34.989 31.625 34.8726 31.2457 34.6526C30.8665 34.4327 30.5517 34.1168 30.3331 33.7368C30.1145 33.3568 29.9996 32.926 30 32.4876C30.0005 32.0492 30.1162 31.6186 30.3356 31.239C30.555 30.8594 30.8703 30.5442 31.25 30.325C31.2149 30.5817 31.2604 30.8429 31.3803 31.0725C31.5001 31.3022 31.6883 31.489 31.9189 31.607C32.1495 31.725 32.411 31.7685 32.6674 31.7314C32.9238 31.6944 33.1623 31.5785 33.35 31.4L35.1125 29.6375C35.2297 29.5213 35.3226 29.383 35.3861 29.2307C35.4496 29.0784 35.4822 28.915 35.4822 28.75C35.4822 28.585 35.4496 28.4216 35.3861 28.2693C35.3226 28.117 35.2297 27.9787 35.1125 27.8625L33.35 26.1C33.2338 25.9828 33.0955 25.8898 32.9432 25.8264C32.7909 25.7629 32.6275 25.7303 32.4625 25.7303C32.2975 25.7303 32.1341 25.7629 31.9818 25.8264C31.8295 25.8898 31.6912 25.9828 31.575 26.1C31.3853 26.2991 31.2666 26.5552 31.2372 26.8287C31.2078 27.1021 31.2694 27.3776 31.4125 27.6125C30.4931 27.8174 29.6502 28.2778 28.9811 28.9408C28.3119 29.6037 27.8436 30.4422 27.6301 31.3596C27.4166 32.2771 27.4666 33.2362 27.7744 34.1265C28.0822 35.0167 28.6352 35.8019 29.3697 36.3917C30.1042 36.9814 30.9904 37.3516 31.9261 37.4598C32.8619 37.5679 33.8091 37.4095 34.6588 37.0028C35.5084 36.5961 36.2259 35.9576 36.7286 35.161C37.2312 34.3644 37.4986 33.442 37.5 32.5C37.5 32.1685 37.3683 31.8505 37.1339 31.6161C36.8995 31.3817 36.5815 31.25 36.25 31.25Z" fill="#7F3DFF"/>
<path d="M30.725 6.9125C30.1809 6.57645 29.56 6.38511 28.9211 6.35667C28.2823 6.32822 27.6468 6.46362 27.075 6.75L26.7 6.9375C26.5389 7.00994 26.3642 7.04739 26.1875 7.04739C26.0108 7.04739 25.8361 7.00994 25.675 6.9375L21.3875 5.2625C20.4965 4.90766 19.5035 4.90766 18.6125 5.2625L14.325 6.975C14.1639 7.04744 13.9892 7.08489 13.8125 7.08489C13.6358 7.08489 13.4611 7.04744 13.3 6.975L12.925 6.7875C12.3565 6.50363 11.7252 6.36888 11.0903 6.3959C10.4554 6.42292 9.83785 6.61082 9.29551 6.94197C8.75318 7.27312 8.30389 7.73665 7.98982 8.28905C7.67575 8.84145 7.5072 9.4646 7.5 10.1V28.75C7.5 30.4076 8.15848 31.9973 9.33058 33.1694C10.5027 34.3415 12.0924 35 13.75 35H25.475C25.17 34.2013 25.0092 33.3549 25 32.5V32.4C25.002 31.0538 25.3664 29.733 26.0548 28.5761C26.7432 27.4192 27.7303 26.4689 28.9125 25.825C29.0861 25.2216 29.4085 24.6714 29.85 24.225L30 24.0875C30.2367 23.879 30.4968 23.6987 30.775 23.55C31.234 23.3168 31.7361 23.1807 32.25 23.15H32.5V10.1C32.5 9.46153 32.3369 8.83365 32.0263 8.27584C31.7156 7.71802 31.2677 7.24876 30.725 6.9125ZM22.5 26.25H15C14.6685 26.25 14.3505 26.1183 14.1161 25.8839C13.8817 25.6495 13.75 25.3315 13.75 25C13.75 24.6685 13.8817 24.3505 14.1161 24.1161C14.3505 23.8817 14.6685 23.75 15 23.75H22.5C22.8315 23.75 23.1495 23.8817 23.3839 24.1161C23.6183 24.3505 23.75 24.6685 23.75 25C23.75 25.3315 23.6183 25.6495 23.3839 25.8839C23.1495 26.1183 22.8315 26.25 22.5 26.25ZM25 18.75H15C14.6685 18.75 14.3505 18.6183 14.1161 18.3839C13.8817 18.1495 13.75 17.8315 13.75 17.5C13.75 17.1685 13.8817 16.8505 14.1161 16.6161C14.3505 16.3817 14.6685 16.25 15 16.25H25C25.3315 16.25 25.6495 16.3817 25.8839 16.6161C26.1183 16.8505 26.25 17.1685 26.25 17.5C26.25 17.8315 26.1183 18.1495 25.8839 18.3839C25.6495 18.6183 25.3315 18.75 25 18.75Z" fill="#7F3DFF"/>
</svg>
