<svg width="32" height="32" viewBox="0 0 32 32" fill="none" xmlns="http://www.w3.org/2000/svg">
<path d="M16 28C18.3734 28 20.6934 27.2962 22.6668 25.9776C24.6402 24.6591 26.1783 22.7849 27.0865 20.5922C27.9948 18.3995 28.2324 15.9867 27.7694 13.6589C27.3064 11.3311 26.1635 9.19295 24.4853 7.51472C22.807 5.83649 20.6689 4.6936 18.3411 4.23058C16.0133 3.76755 13.6005 4.00519 11.4078 4.91344C9.21508 5.8217 7.34094 7.35976 6.02236 9.33315C4.70378 11.3065 4 13.6266 4 16C4 19.1826 5.26428 22.2348 7.51471 24.4853C9.76515 26.7357 12.8174 28 16 28ZM17 21C17 21.2652 16.8946 21.5196 16.7071 21.7071C16.5196 21.8946 16.2652 22 16 22C15.7348 22 15.4804 21.8946 15.2929 21.7071C15.1054 21.5196 15 21.2652 15 21L15 15C15 14.7348 15.1054 14.4804 15.2929 14.2929C15.4804 14.1054 15.7348 14 16 14C16.2652 14 16.5196 14.1054 16.7071 14.2929C16.8946 14.4804 17 14.7348 17 15L17 21ZM16 10C16.1978 10 16.3911 10.0586 16.5556 10.1685C16.72 10.2784 16.8482 10.4346 16.9239 10.6173C16.9996 10.8 17.0194 11.0011 16.9808 11.1951C16.9422 11.3891 16.847 11.5673 16.7071 11.7071C16.5672 11.847 16.3891 11.9422 16.1951 11.9808C16.0011 12.0194 15.8 11.9996 15.6173 11.9239C15.4346 11.8482 15.2784 11.72 15.1685 11.5556C15.0586 11.3911 15 11.1978 15 11C15 10.7348 15.1054 10.4804 15.2929 10.2929C15.4804 10.1054 15.7348 10 16 10Z" fill="#212325"/>
</svg>
