<svg width="32" height="32" viewBox="0 0 32 32" fill="none" xmlns="http://www.w3.org/2000/svg">
<path d="M23.91 8.09C23.6104 8.02985 23.3055 7.9997 23 8H11C10.7348 8 10.4804 7.89464 10.2929 7.70711C10.1053 7.51957 9.99998 7.26522 9.99998 7C9.99998 6.73478 10.1053 6.48043 10.2929 6.29289C10.4804 6.10536 10.7348 6 11 6H23C22.5342 5.37902 21.9303 4.875 21.236 4.52786C20.5418 4.18073 19.7762 4 19 4H8.99998C8.22375 4 7.45819 4.18073 6.76391 4.52786C6.06963 4.875 5.46571 5.37902 4.99998 6C4.34694 6.86342 3.99559 7.91744 3.99998 9V23C3.99998 24.3261 4.52676 25.5979 5.46445 26.5355C6.40213 27.4732 7.6739 28 8.99998 28H23C24.3261 28 25.5978 27.4732 26.5355 26.5355C27.4732 25.5979 28 24.3261 28 23V13C27.9985 11.8329 27.5887 10.7031 26.8417 9.80634C26.0947 8.90959 25.0576 8.30241 23.91 8.09ZM21.24 21C21.1603 21.0096 21.0797 21.0096 21 21C20.2043 21 19.4413 20.6839 18.8787 20.1213C18.3161 19.5587 18 18.7956 18 18C18 17.2044 18.3161 16.4413 18.8787 15.8787C19.4413 15.3161 20.2043 15 21 15C21.3416 14.9978 21.6806 15.0589 22 15.18C22.6373 15.416 23.1756 15.8615 23.5267 16.4434C23.8778 17.0253 24.021 17.7092 23.9327 18.383C23.8444 19.0569 23.5299 19.6808 23.0407 20.1526C22.5515 20.6244 21.9166 20.9161 21.24 20.98V21Z" fill="#7F3DFF"/>
<path d="M21 19C21.5523 19 22 18.5523 22 18C22 17.4477 21.5523 17 21 17C20.4477 17 20 17.4477 20 18C20 18.5523 20.4477 19 21 19Z" fill="#7F3DFF"/>
</svg>
