<svg width="32" height="32" viewBox="0 0 32 32" fill="none" xmlns="http://www.w3.org/2000/svg">
<path d="M25.19 12.46L13.19 24.46C12.9139 24.7302 12.5674 24.9173 12.19 25L8.65002 25.71C8.32774 25.7737 7.99471 25.7571 7.68039 25.6616C7.36606 25.566 7.08011 25.3945 6.84781 25.1622C6.61551 24.9299 6.44401 24.644 6.34847 24.3296C6.25293 24.0153 6.23629 23.6823 6.30002 23.36L7.00002 19.85C7.08269 19.4726 7.26981 19.1261 7.54002 18.85L19.38 7C19.7666 6.60389 20.2285 6.28911 20.7386 6.07419C21.2486 5.85927 21.7965 5.74855 22.35 5.74855C22.9035 5.74855 23.4514 5.85927 23.9615 6.07419C24.4715 6.28911 24.9334 6.60389 25.32 7C26.009 7.75994 26.3796 8.7555 26.3554 9.78096C26.3313 10.8064 25.914 11.7834 25.19 12.51V12.46Z" stroke="#212325" stroke-width="2" stroke-linecap="round" stroke-linejoin="round"/>
</svg>
